<svg width="62" height="56" viewBox="0 0 62 56" fill="none" xmlns="http://www.w3.org/2000/svg">
<g clip-path="url(#clip0_1205_69498)">
<path fill-rule="evenodd" clip-rule="evenodd" d="M56.0458 34.2103L41.035 9.57049C36.4255 2.00446 25.2918 2.00445 20.6824 9.57046L5.67142 34.2103C0.925477 42.0006 6.62317 51.9117 15.8476 51.9117H45.8697C55.0942 51.9117 60.7918 42.0006 56.0458 34.2103ZM44.427 7.56604C38.281 -2.522 23.4362 -2.52202 17.2904 7.56601L2.27935 32.206C-4.04857 42.5929 3.54836 55.8076 15.8476 55.8076H45.8697C58.1689 55.8076 65.7659 42.5929 59.4381 32.206L44.427 7.56604Z" fill="#15162C"/>
<path fill-rule="evenodd" clip-rule="evenodd" d="M32.8368 43.9416C33.7543 42.9991 34.7697 42.2442 35.8395 41.6311C37.3567 40.7613 38.9279 40.2076 40.3456 39.7846C41.0494 39.5746 41.6437 39.4142 42.1888 39.2674C42.8557 39.0873 43.4488 38.9272 44.0787 38.7206C46.6252 37.8848 48.8392 36.1763 50.7227 34.3213C51.6562 33.4016 52.4818 32.4736 53.2155 31.6308C53.3321 31.4967 53.4488 31.3621 53.5644 31.2284C54.1423 30.5611 54.7023 29.9148 55.1729 29.4513L57.9699 32.2063C57.6207 32.5502 57.1909 33.046 56.612 33.7135C56.488 33.8566 56.3573 34.0071 56.2188 34.1663C55.4691 35.0278 54.5638 36.0478 53.5198 37.0761C51.4474 39.1171 48.7168 41.3046 45.3296 42.4166C44.6727 42.6324 43.8471 42.858 43.0453 43.0773C42.496 43.2272 41.9576 43.3743 41.4924 43.5132C40.201 43.8986 38.9632 44.3482 37.8293 44.998C35.7029 46.217 33.7344 48.2517 32.8368 52.4542V53.4629C32.8368 54.5386 31.9511 55.4109 30.8587 55.4109C29.7664 55.4109 28.8809 54.5386 28.8809 53.4629V52.2565V35.0446C27.9654 32.4047 27.1 30.7929 26.1252 29.6409C25.134 28.4695 23.9189 27.6413 22.0626 26.7272C19.6381 25.5332 17.8952 24.1888 16.4981 22.3743C15.1403 20.6107 14.187 18.4986 13.1895 15.9442L16.8816 14.5456C17.8619 17.056 18.6526 18.7247 19.6501 20.0203C20.6084 21.2649 21.8324 22.258 23.8316 23.2425C25.7988 24.2112 27.4607 25.2553 28.8809 26.8232V1.23592L32.8368 1.23523V43.9416Z" fill="#15162C"/>
<path d="M17.9887 42.0089C14.5897 38.6615 14.2786 32.8733 14.2786 32.8733C14.2786 32.8733 19.8438 32.8733 23.5543 36.5275C27.2647 40.1818 25.4094 43.836 25.4094 43.836C25.4094 43.836 21.3877 45.3562 17.9887 42.0089Z" fill="#15162C"/>
<path d="M37.9368 28.1271C41.3356 24.7796 47.2127 24.4731 47.2127 24.4731C47.2127 24.4731 47.2127 29.9542 43.5024 33.6086C39.792 37.2628 36.0816 35.4357 36.0816 35.4357C36.0816 35.4357 34.5381 31.4747 37.9368 28.1271Z" fill="#15162C"/>
</g>
<defs>
<clipPath id="clip0_1205_69498">
<rect width="62" height="56" fill="white"/>
</clipPath>
</defs>
</svg>
